<svg width="80" height="64" viewBox="0 0 80 64" fill="none" xmlns="http://www.w3.org/2000/svg">
<path fill-rule="evenodd" clip-rule="evenodd" d="M68 0H12C5.37258 0 0 5.37258 0 12V52C0 58.6274 5.37258 64 12 64H68C74.6274 64 80 58.6274 80 52V12C80 5.37258 74.6274 0 68 0ZM60 24C64.4183 24 68 20.4183 68 16C68 11.5817 64.4183 8 60 8C55.5817 8 52 11.5817 52 16C52 20.4183 55.5817 24 60 24ZM9.17157 50.8284C8.42143 50.0783 8 49.0609 8 48C8 37.448 16 20 24 20C27.8005 20 31.202 24.5137 34.7731 29.2525C38.7192 34.4888 42.8724 40 48 40C52.7466 40 55.6957 38.5218 58.0082 37.3626C59.4997 36.6149 60.7265 36 62 36C65.248 36 72 42.544 72 48C72 49.0609 71.5786 50.0783 70.8284 50.8284C70.0783 51.5786 69.0609 52 68 52H12C10.9391 52 9.92172 51.5786 9.17157 50.8284Z" fill="#364A5C" fill-opacity="0.3"/>
</svg>
